<mxfile host="65bd71144e">
    <diagram id="4DcBIBx-eIF1gxukRBjN" name="Page-1">
        <mxGraphModel dx="777" dy="1675" grid="1" gridSize="10" guides="1" tooltips="1" connect="1" arrows="1" fold="1" page="1" pageScale="1" pageWidth="850" pageHeight="1100" math="0" shadow="0">
            <root>
                <mxCell id="0"/>
                <mxCell id="1" parent="0"/>
                <mxCell id="2" value="View Profile" style="swimlane;childLayout=stackLayout;resizeParent=1;resizeParentMax=0;startSize=20;fillColor=none;" parent="1" vertex="1">
                    <mxGeometry x="210" y="-20" width="620" height="1030" as="geometry">
                        <mxRectangle x="220" y="60" width="60" height="20" as="alternateBounds"/>
                    </mxGeometry>
                </mxCell>
                <mxCell id="3" value="Instructor" style="swimlane;startSize=20;" parent="2" vertex="1">
                    <mxGeometry y="20" width="280" height="1010" as="geometry"/>
                </mxCell>
                <mxCell id="4" value="click to submit feedback" style="rounded=1;whiteSpace=wrap;html=1;fillColor=none;" parent="3" vertex="1">
                    <mxGeometry x="70" y="112" width="120" height="60" as="geometry"/>
                </mxCell>
                <mxCell id="5" value="Enter the feedback" style="rounded=1;whiteSpace=wrap;html=1;fillColor=none;" parent="3" vertex="1">
                    <mxGeometry x="70" y="202" width="120" height="60" as="geometry"/>
                </mxCell>
                <mxCell id="7" style="edgeStyle=orthogonalEdgeStyle;rounded=0;orthogonalLoop=1;jettySize=auto;html=1;exitX=0.5;exitY=1;exitDx=0;exitDy=0;entryX=0.5;entryY=0;entryDx=0;entryDy=0;" parent="3" source="8" target="4" edge="1">
                    <mxGeometry relative="1" as="geometry"/>
                </mxCell>
                <mxCell id="8" value="" style="ellipse;whiteSpace=wrap;html=1;aspect=fixed;fillColor=#000000;" parent="3" vertex="1">
                    <mxGeometry x="115" y="40" width="30" height="30" as="geometry"/>
                </mxCell>
                <mxCell id="9" style="edgeStyle=orthogonalEdgeStyle;rounded=0;orthogonalLoop=1;jettySize=auto;html=1;exitX=1;exitY=0.5;exitDx=0;exitDy=0;entryX=0;entryY=0.5;entryDx=0;entryDy=0;" parent="2" source="4" target="13" edge="1">
                    <mxGeometry relative="1" as="geometry"/>
                </mxCell>
                <mxCell id="10" style="edgeStyle=orthogonalEdgeStyle;rounded=0;orthogonalLoop=1;jettySize=auto;html=1;exitX=0.5;exitY=1;exitDx=0;exitDy=0;entryX=0.5;entryY=0;entryDx=0;entryDy=0;" parent="2" source="13" target="5" edge="1">
                    <mxGeometry relative="1" as="geometry">
                        <Array as="points">
                            <mxPoint x="415" y="202"/>
                            <mxPoint x="130" y="202"/>
                        </Array>
                    </mxGeometry>
                </mxCell>
                <mxCell id="11" style="edgeStyle=orthogonalEdgeStyle;rounded=0;orthogonalLoop=1;jettySize=auto;html=1;exitX=1;exitY=0.5;exitDx=0;exitDy=0;entryX=0;entryY=0.5;entryDx=0;entryDy=0;" parent="2" source="5" target="15" edge="1">
                    <mxGeometry relative="1" as="geometry"/>
                </mxCell>
                <mxCell id="12" value="System" style="swimlane;startSize=20;" parent="2" vertex="1">
                    <mxGeometry x="280" y="20" width="340" height="1010" as="geometry"/>
                </mxCell>
                <mxCell id="13" value="Prompt for feedback" style="rounded=1;whiteSpace=wrap;html=1;fillColor=none;" parent="12" vertex="1">
                    <mxGeometry x="75" y="112" width="120" height="60" as="geometry"/>
                </mxCell>
                <mxCell id="14" style="edgeStyle=orthogonalEdgeStyle;rounded=0;orthogonalLoop=1;jettySize=auto;html=1;exitX=0.5;exitY=1;exitDx=0;exitDy=0;entryX=0.5;entryY=0;entryDx=0;entryDy=0;" parent="12" source="15" edge="1">
                    <mxGeometry relative="1" as="geometry">
                        <mxPoint x="135" y="302" as="targetPoint"/>
                    </mxGeometry>
                </mxCell>
                <mxCell id="15" value="save to database" style="rounded=1;whiteSpace=wrap;html=1;fillColor=none;" parent="12" vertex="1">
                    <mxGeometry x="75" y="202" width="120" height="60" as="geometry"/>
                </mxCell>
                <mxCell id="28" value="" style="ellipse;whiteSpace=wrap;html=1;aspect=fixed;strokeWidth=1;fillColor=#000000;" parent="12" vertex="1">
                    <mxGeometry x="115" y="400" width="40" height="40" as="geometry"/>
                </mxCell>
                <mxCell id="29" value="" style="ellipse;whiteSpace=wrap;html=1;aspect=fixed;" parent="12" vertex="1">
                    <mxGeometry x="120" y="405" width="30" height="30" as="geometry"/>
                </mxCell>
                <mxCell id="37" style="edgeStyle=orthogonalEdgeStyle;rounded=0;orthogonalLoop=1;jettySize=auto;html=1;exitX=0.5;exitY=1;exitDx=0;exitDy=0;entryX=0.5;entryY=0;entryDx=0;entryDy=0;" edge="1" parent="12" source="36" target="28">
                    <mxGeometry relative="1" as="geometry"/>
                </mxCell>
                <mxCell id="36" value="display success" style="rounded=1;whiteSpace=wrap;html=1;fillColor=none;" vertex="1" parent="12">
                    <mxGeometry x="75" y="300" width="120" height="60" as="geometry"/>
                </mxCell>
            </root>
        </mxGraphModel>
    </diagram>
</mxfile>